<?xml version="1.0" encoding="UTF-8" standalone="no"?>
<!-- Created with Inkscape (http://www.inkscape.org/) -->

<svg
   xmlns:dc="http://purl.org/dc/elements/1.1/"
   xmlns:cc="http://creativecommons.org/ns#"
   xmlns:rdf="http://www.w3.org/1999/02/22-rdf-syntax-ns#"
   xmlns:svg="http://www.w3.org/2000/svg"
   xmlns="http://www.w3.org/2000/svg"
   xmlns:xlink="http://www.w3.org/1999/xlink"
   xmlns:sodipodi="http://sodipodi.sourceforge.net/DTD/sodipodi-0.dtd"
   xmlns:inkscape="http://www.inkscape.org/namespaces/inkscape"
   width="640"
   height="640"
   viewBox="0 0 640.00001 640.00001"
   id="svg2"
   version="1.1"
   inkscape:version="0.91 r13725"
   sodipodi:docname="progress_meter.svg"
   inkscape:export-filename="I:\projects\GGJ2017\GGJ2017\Assets\Map\progress_meter.png"
   inkscape:export-xdpi="90"
   inkscape:export-ydpi="90">
  <defs
     id="defs4">
    <linearGradient
       inkscape:collect="always"
       id="linearGradient4142">
      <stop
         style="stop-color:#ffffff;stop-opacity:1;"
         offset="0"
         id="stop4144" />
      <stop
         style="stop-color:#ffffff;stop-opacity:0;"
         offset="1"
         id="stop4146" />
    </linearGradient>
    <linearGradient
       inkscape:collect="always"
       xlink:href="#linearGradient4142"
       id="linearGradient4148"
       x1="226.79285"
       y1="706.66218"
       x2="469.71473"
       y2="706.66218"
       gradientUnits="userSpaceOnUse" />
    <linearGradient
       inkscape:collect="always"
       xlink:href="#linearGradient4142"
       id="linearGradient4212"
       gradientUnits="userSpaceOnUse"
       x1="226.79285"
       y1="706.66218"
       x2="469.71473"
       y2="706.66218"
       gradientTransform="translate(-0.11403689,0.74248211)" />
    <linearGradient
       inkscape:collect="always"
       xlink:href="#linearGradient4142"
       id="linearGradient4214"
       gradientUnits="userSpaceOnUse"
       x1="226.79285"
       y1="706.66218"
       x2="469.71473"
       y2="706.66218"
       gradientTransform="translate(1.1671951,10.530933)" />
    <linearGradient
       inkscape:collect="always"
       xlink:href="#linearGradient4142"
       id="linearGradient4216"
       gradientUnits="userSpaceOnUse"
       x1="226.79285"
       y1="706.66218"
       x2="469.71473"
       y2="706.66218"
       gradientTransform="translate(2.0658622,17.421162)" />
    <linearGradient
       inkscape:collect="always"
       xlink:href="#linearGradient4142"
       id="linearGradient4218"
       gradientUnits="userSpaceOnUse"
       x1="226.79285"
       y1="706.66218"
       x2="469.71473"
       y2="706.66218"
       gradientTransform="translate(0.70934936,7.0998984)" />
    <linearGradient
       inkscape:collect="always"
       xlink:href="#linearGradient4142"
       id="linearGradient4220"
       gradientUnits="userSpaceOnUse"
       x1="226.79285"
       y1="706.66218"
       x2="469.71473"
       y2="706.66218"
       gradientTransform="translate(-0.04164546,0.61896552)" />
    <linearGradient
       inkscape:collect="always"
       xlink:href="#linearGradient4142"
       id="linearGradient4222"
       gradientUnits="userSpaceOnUse"
       x1="226.79285"
       y1="706.66218"
       x2="469.71473"
       y2="706.66218"
       gradientTransform="translate(-0.02213201,-0.13571821)" />
    <linearGradient
       inkscape:collect="always"
       xlink:href="#linearGradient4142"
       id="linearGradient4224"
       gradientUnits="userSpaceOnUse"
       x1="226.79285"
       y1="706.66218"
       x2="469.71473"
       y2="706.66218"
       gradientTransform="translate(-0.20190817,-1.2622789)" />
    <linearGradient
       inkscape:collect="always"
       xlink:href="#linearGradient4142"
       id="linearGradient4226"
       gradientUnits="userSpaceOnUse"
       x1="226.79285"
       y1="706.66218"
       x2="469.71473"
       y2="706.66218"
       gradientTransform="translate(-0.498124,-3.1276513)" />
    <linearGradient
       inkscape:collect="always"
       xlink:href="#linearGradient4142"
       id="linearGradient4228"
       gradientUnits="userSpaceOnUse"
       x1="226.79285"
       y1="706.66218"
       x2="469.71473"
       y2="706.66218"
       gradientTransform="translate(-1,-6.3)" />
    <linearGradient
       inkscape:collect="always"
       xlink:href="#linearGradient4142"
       id="linearGradient4230"
       gradientUnits="userSpaceOnUse"
       x1="226.79285"
       y1="706.66218"
       x2="469.71473"
       y2="706.66218"
       gradientTransform="translate(-0.01049398,0.15131132)" />
  </defs>
  <sodipodi:namedview
     id="base"
     pagecolor="#000000"
     bordercolor="#666666"
     borderopacity="1.0"
     inkscape:pageopacity="0"
     inkscape:pageshadow="2"
     inkscape:zoom="1.4"
     inkscape:cx="319.08294"
     inkscape:cy="364.51045"
     inkscape:document-units="px"
     inkscape:current-layer="layer1"
     showgrid="false"
     units="px"
     inkscape:window-width="1920"
     inkscape:window-height="1017"
     inkscape:window-x="1272"
     inkscape:window-y="32"
     inkscape:window-maximized="1" />
  <metadata
     id="metadata7">
    <rdf:RDF>
      <cc:Work
         rdf:about="">
        <dc:format>image/svg+xml</dc:format>
        <dc:type
           rdf:resource="http://purl.org/dc/dcmitype/StillImage" />
        <dc:title />
      </cc:Work>
    </rdf:RDF>
  </metadata>
  <g
     inkscape:label="Layer 1"
     inkscape:groupmode="layer"
     id="layer1"
     transform="translate(0,-412.36216)">
    <g
       style="font-style:normal;font-variant:normal;font-weight:normal;font-stretch:normal;font-size:50px;line-height:125%;font-family:Decade;-inkscape-font-specification:'Decade, Normal';text-align:start;letter-spacing:0px;word-spacing:0px;writing-mode:lr-tb;text-anchor:start;fill:url(#linearGradient4148);fill-opacity:1;stroke:none;stroke-width:1px;stroke-linecap:butt;stroke-linejoin:miter;stroke-opacity:1"
       id="text4138">
      <path
         d="m 252.73236,711.8635 q -0.2,0.6 -0.6,0.8 0.25,0.3 0.25,0.4 0,0.7 -0.7,1.4 -0.05,0.5 -0.1,1 -0.15,0.7 -0.7,0.9 0.1,0.1 0.35,-0.1 -0.5,1.95 -0.5,2 -0.45,1.4 -1,1.85 0.35,0.4 0.35,0.4 0,-0.2 -0.55,1.75 -1.05,0.7 -1.55,0.7 l -20.8,0 0,-11.55 0.15,-0.1 q 0.2,-0.2 -0.15,-0.3 0.05,-0.15 0.15,-0.1 0.1,0 0.2,-0.15 -0.15,-0.1 -0.3,-0.35 -0.1,-0.2 0.1,-0.65 -0.3,-1 -0.3,-2.3 0,-1.65 0.4,-2.8 0.2,0 0.85,-0.05 0.65,-0.05 0.9,-0.05 0.1,-0.1 0.1,-0.35 0,-0.1 -0.4,-0.75 0.05,-0.1 0.05,-0.35 0.05,-0.1 -0.1,-0.2 -0.1,0.05 -0.25,0.25 -0.15,0.15 -0.3,0.25 0,-0.2 0.15,-0.35 -0.65,-0.9 -0.9,-0.9 -0.2,0 -0.2,0.25 -0.2,-0.6 0.2,-0.85 -0.05,-0.05 -0.3,-0.3 -0.2,-0.3 -0.2,-0.5 0,-0.75 0.4,-1.4 0.05,0 0.2,0.15 0.15,0.15 0.25,0.15 l 0.15,0 q -0.4,-0.55 -0.85,-0.45 l -0.4,-16.85 4.5,0 q -0.15,0.1 0,0.25 -0.3,0 0.35,-0.15 1.6,-0.05 6.05,-0.25 l 0,13.75 q -0.15,-0.15 -0.3,-0.05 0.1,0.1 0.3,0.35 -0.05,3.05 0.2,8.85 -0.2,0.2 -0.45,0.2 -0.05,0.05 -0.05,0.4 l 0.2,0.2 q 0.05,-0.05 0.1,-0.2 0.1,-0.2 0.15,-0.3 -0.05,0.2 -0.1,2 0,1.7 0,2 0.05,0.45 0.2,1.85 0.95,0.85 1.4,0.85 l 13.4,-0.25 z m -15.75,-27.7 0,-0.25 -0.5,0 0,0.25 0.5,0 z m -3.6,0.2 0,-0.5 -0.25,0 0,0.5 0.25,0 z m -1.8,-1.6 -0.15,-0.05 -0.15,0.3 0.15,0.1 0.15,-0.35 z m 3.2,5.5 0,-0.5 -0.25,0 0,0.5 0.25,0 z m -6.95,-4.2 q 0,0.1 -0.3,0.1 0.1,0.1 0.15,0.3 0.15,-0.1 0.15,-0.4 z m 8.2,9.5 0,-0.35 -0.25,0 0,0.35 0.25,0 z m -6.65,-6.3 q 0,-0.35 -0.15,-0.5 -0.1,0.1 -0.2,0.3 0.15,0.15 0.35,0.2 z m -1.1,-0.5 -0.05,-0.2 -0.55,0.3 0,0.2 0.6,-0.3 z m 8.3,12.7 q 0,-0.35 -0.15,-0.45 -0.2,0 -0.2,0.35 0.15,0 0.35,0.1 z m -7.75,-7.3 0,-0.45 -0.2,0 0,0.45 0.2,0 z m 22.05,22 -0.15,-0.05 -0.15,0.35 0.15,0.05 0.15,-0.35 z m -19.3,-18.55 -0.2,-0.2 -0.1,0.15 0.15,0.2 0.15,-0.15 z m 1.2,1.25 q -0.05,0.1 -0.25,0.3 -0.2,0.15 -0.2,0.3 0.1,0.1 0.3,0.15 0.15,-0.25 0.15,-0.75 z m 4.1,4.45 -0.15,-0.05 -0.15,0.3 0.15,0.1 0.15,-0.35 z m -7.8,-7.6 -0.2,0 -0.15,0.6 0.2,0 0.15,-0.6 z m 7.2,9.3 0,-0.95 -0.25,0 0,0.95 0.25,0 z m -0.45,-0.1 q 0,-0.1 -0.1,-0.3 -0.05,-0.25 -0.05,-0.3 -0.2,0 -0.2,0.45 0.15,0 0.35,0.15 z m 1.6,1.6 0,-0.45 -0.25,0 0,0.45 0.25,0 z m -9.5,-8.55 0,-0.5 -0.2,0 0,0.5 0.2,0 z m 22.4,22.55 0,-0.45 q -0.05,0 -0.25,0.05 -0.15,0.05 -0.2,0.05 l 0,0.5 q 0.15,-0.15 0.45,-0.15 z m -16.45,-15.4 -0.15,-0.35 -0.2,0.05 0.15,0.3 0.2,0 z m 16.15,16.15 -0.15,-0.35 -0.2,0.05 0.15,0.3 0.2,0 z m -1.65,-1 0,-0.6 -0.2,0 0,0.6 0.2,0 z m -11.85,-12.05 -0.2,-0.05 -0.15,0.35 0.2,0.05 0.15,-0.35 z m 1.1,1.65 -0.15,-0.2 -0.15,0.15 0.2,0.15 0.1,-0.1 z m 6.6,7.5 0,-0.35 -0.25,0 0,0.35 0.25,0 z m -7.2,-6.3 0,-0.35 -0.2,0 0,0.35 0.2,0 z m -3.55,-3.75 -0.15,0 -0.15,0.45 0.15,0.05 0.15,-0.5 z m 2.65,5 0,-0.35 -0.2,0 0,0.35 0.2,0 z m 10.35,10.2 -0.15,-0.1 -0.2,0.35 0.2,0.05 0.15,-0.3 z m -17.45,-15.55 q -0.15,0 -0.35,0.15 0.1,0.1 0.15,0.3 0.2,-0.15 0.2,-0.45 z m 0.75,3.85 q 0,0 -0.1,-0.2 -0.1,-0.15 0,-0.25 -0.25,0 -0.25,0.3 0.1,0 0.35,0.15 z"
         style="fill:url(#linearGradient4230);fill-opacity:1"
         id="path4192"
         inkscape:connector-curvature="0" />
      <path
         d="m 265.72855,722.78114 -0.35,0 0,-0.2 0.35,0 0,0.2 z m 18.4,-13.2 q 0,1.05 -0.5,1.9 0.05,0.1 0.35,0.1 -0.15,0.4 -0.35,1.15 -0.35,4 -4.15,7.35 -3.5,3.15 -6.7,3.3 -0.05,0 -0.3,0.1 -0.2,0.1 -0.35,0.1 -0.15,0 -1.1,0.05 -0.9,0.1 -1.05,0.1 -2.7,0 -3.65,-0.65 l -0.25,0.25 q -5.2,-1.5 -8.15,-5.55 -2.75,-3.8 -2.75,-8.5 0,-2 0.65,-4 0.25,-0.65 0.7,-1 -0.15,-0.45 0.05,-0.9 4.3,-8.1 12.8,-8.1 2.5,0 4.95,0.7 0.6,0.15 1.95,0.9 1.9,1.1 2.8,1.8 1.55,1.25 2.2,2.75 0.15,0.05 0.4,0.25 0.05,0.2 0.3,0.8 0.3,0.6 0.3,0.95 0.2,0 0.55,0.35 0.2,0.4 0.05,0.75 0.1,0.1 0.3,0.35 0.05,0.1 0.05,0.65 0,-0.15 -0.4,1.45 0.15,-0.15 0.35,0.1 0.2,0 0.2,-0.35 0.35,0.2 0.4,0.9 0.1,0.65 0.15,0.7 0.2,0.2 0.2,1.25 z m -4.65,-9.15 0,-0.2 -0.3,0 0,0.2 0.3,0 z m 1.15,1.9 0,-0.25 -0.6,-0.15 0,0.25 0.6,0.15 z m -3.95,-3.95 -0.5,-0.15 0,0.2 0.4,0.15 0.1,-0.2 z m 5.35,8.35 q -0.1,0 -0.55,0.4 0.35,0.35 0.35,0.4 0,-0.1 0.1,-0.35 0.15,-0.3 0.1,-0.45 z m -2.55,1.85 q 0,-0.45 -0.15,-0.6 -0.3,0.3 -0.3,0.45 0.15,0.15 0.45,0.15 z m -18.05,-8.5 -0.2,-0.2 -0.1,0.1 0.15,0.2 0.15,-0.1 z m 13.5,9.5 q 0,-1.8 -1.45,-3.3 -1.45,-1.55 -3.65,-1.55 -2.05,0 -3.65,1.45 -1.55,1.4 -1.55,3.45 0,1.05 0.65,2.2 0.65,1.1 1,1.4 1.2,1.05 1.65,1.05 0.15,0 0.6,0.15 0.45,0.15 0.6,0.2 0.25,0.05 0.6,0 0.35,-0.1 0.4,-0.1 1.95,0 3.35,-1.6 1.45,-1.6 1.45,-3.35 z m -17.4,-5.65 0,-0.25 -0.45,0 0,0.25 0.45,0 z m 7.75,8.15 -0.2,-0.2 -0.1,0.15 0.15,0.2 0.15,-0.15 z m 5.5,7.25 0,0 0,0 0,0 z m -14,-10.15 q -0.2,-0.35 -0.7,-0.85 0,0.1 0.1,0.45 0.1,0.25 0,0.4 0.1,0 0.3,0 0.25,0 0.3,0 z m 11.25,11.1 -0.2,-0.2 -0.15,0.15 0.2,0.15 0.15,-0.1 z"
         style="fill:url(#linearGradient4220);fill-opacity:1"
         id="path4194"
         inkscape:connector-curvature="0" />
      <path
         d="m 314.29205,728.81208 q -0.1,0 -0.35,0.15 -0.25,0.1 -0.4,0.1 0,-0.35 0.55,-0.6 0.2,0 0.2,0.35 z m -4.7,0.35 0,0 0,0 0,0 z m -0.8,-0.2 -0.15,0.5 -0.2,-0.05 0.15,-0.45 0.2,0 z m 6.8,0.6 -9.45,0 q 0.1,-1 0,-1.3 l -0.2,-0.2 q -2.15,1.4 -2.2,1.4 0,0 -0.25,-0.25 -0.95,1.15 -4.1,1.15 -3.35,0 -6.15,-1.8 -2.75,-1.8 -3.7,-4.4 -0.95,-2.65 -0.95,-4.25 0,-2.25 1.6,-5.05 1.65,-2.85 3.7,-3.75 0.7,-0.3 2.7,-1 2.65,-0.85 3.5,-0.85 0.9,0 2.25,0.3 0.55,0.35 0.5,0.35 l 1.3,0 q 0.7,0 0.7,-0.55 0,-0.55 -0.9,-1.45 -0.9,-0.95 -1.4,-1.05 -0.75,-0.2 -1.75,-0.2 -0.1,0 -0.8,0.05 -0.75,0 -1.05,0 -1.25,0 -3.8,0.3 -2.5,0.3 -2.45,0.3 -0.95,0 -0.95,-0.65 0,-0.85 0.75,-3.6 0.75,-2.8 1,-2.9 0.3,-0.1 1,-0.25 3.85,-0.6 6.8,-0.6 4.55,0 8.65,0.95 0.4,0.25 1.15,0.6 0.75,0.35 1.5,0.85 0,0 0.9,0.9 0.75,0.8 1.45,3.15 0.7,2.3 0.65,3.8 l 0,20 z m -8.95,-24.65 0,-0.2 -0.35,0 0,0.2 0.35,0 z m 1.85,18.1 -0.1,-0.15 -0.35,0.3 0.15,0.15 0.3,-0.3 z m 2,2.75 -0.2,-0.05 -0.15,0.35 0.15,0.05 0.2,-0.35 z m -0.9,-1.05 q 0,0 -0.45,0.45 l 0.45,0.45 q 0.25,-0.5 0,-0.9 z m 0.95,2.1 -0.35,-0.3 q 0,0.05 -0.1,0.3 -0.05,0.25 -0.05,0.3 0.2,0 0.5,-0.3 z m -3.35,-2.9 q 0,0 -0.35,-0.35 0,0.05 -0.1,0.25 -0.05,0.15 -0.05,0.25 0.35,0 0.5,-0.15 z m -1.45,-1.05 q 0,-0.05 -0.1,-0.3 -0.05,-0.25 -0.05,-0.3 -0.15,0 -0.5,0.3 0.6,0.3 0.65,0.3 z m -0.1,-3.5 q 0,-1.35 -0.85,-2.2 -0.8,-0.85 -2.1,-0.85 -1.45,0 -2.45,0.9 -1,0.85 -1,2.25 0,1.4 1.25,2.25 1.95,1.3 2.9,1.3 0.25,0 0.4,-0.15 0,-0.4 0.1,-0.5 0.1,0.15 0.25,0.15 0,-0.35 0.1,-0.55 1.4,-1.4 1.4,-2.6 z m -0.2,3.85 0,0 0,0 0,0 z m 5.35,4.35 -0.6,0 q -0.05,0.1 -0.25,0.25 -0.15,0.15 -0.15,0.2 0.2,0.35 0.9,0.8 -0.05,-0.1 -0.65,-0.7 0.25,-0.25 0.45,-0.05 0.3,-0.3 0.3,-0.5 z m -4.6,-3.2 -0.2,-0.2 -0.15,0.1 0.2,0.2 0.15,-0.1 z m 0.65,0.8 -0.2,-0.1 -0.1,0.2 0.2,0.1 0.1,-0.2 z m -2.6,-2.35 -0.2,-0.05 -0.15,0.35 0.2,0.05 0.15,-0.35 z m 1.9,2.2 0,-0.25 -0.35,0 0,0.25 0.35,0 z m -0.65,-0.4 0,-0.2 -0.5,0 0,0.2 0.5,0 z m -1.15,-0.3 -0.1,-0.2 -0.4,0.35 0.1,0.15 0.4,-0.3 z m 4.1,4.35 q 0,-0.05 -0.15,-0.2 -0.1,-0.2 -0.1,-0.25 -0.05,0 -0.25,0.05 -0.15,0.05 -0.25,0.05 l 0,0.5 q 0.15,0.05 0.45,-0.05 0.3,-0.1 0.3,-0.1 z m -2.8,-2.3 0,-0.35 -0.2,0 0,0.35 0.2,0 z m -3.8,2.1 0,-0.2 -0.35,0 0,0.2 0.35,0 z m -1,-0.9 -0.1,-0.2 -0.3,0.15 0,0.2 0.4,-0.15 z m -7,-3.2 -0.2,-0.2 -0.15,0.1 0.2,0.2 0.15,-0.1 z m 3,2.95 -0.2,-0.2 -0.15,0.15 0.2,0.15 0.15,-0.1 z m -4.45,-4.1 q -0.3,-0.3 -0.8,-0.3 0.25,0.25 0.6,0.65 0,-0.15 0.2,-0.35 z m 2.15,3.35 0,-0.25 -0.35,0 0,0.25 0.35,0 z"
         style="fill:url(#linearGradient4218);fill-opacity:1"
         id="path4196"
         inkscape:connector-curvature="0" />
      <path
         d="m 353.54387,739.93335 -10.65,0 q 0.25,-0.8 0,-1.65 l -0.7,0 q -0.3,0.35 -0.85,0.85 -0.7,0.55 -2.6,1 -1.9,0.45 -3.05,0.45 -4.1,0 -7.5,-2.15 -3.2,-2.05 -4.95,-5.4 -0.1,-0.4 -0.35,-1.1 -0.15,-0.15 -0.4,-0.55 -0.95,-2.45 -0.95,-5.6 0,-6.7 4.3,-10.95 4.35,-4.3 10.9,-4.3 0.9,0 1.65,0.15 1.4,0.7 3.15,1.35 l 1.35,0 0,-12.1 10.1,0 0.55,40 z m -10.65,-14.45 q 0,-0.2 -0.25,-0.95 -1.15,-4.1 -5.4,-4.1 -5.05,0 -5.05,5 0,2 1.35,3.75 1.5,2 3.8,2 2.4,0 4.15,-2.15 0.4,-0.45 0.95,-1.3 0.05,-0.5 0.2,-1.25 0.25,-0.6 0.25,-1 z"
         style="fill:url(#linearGradient4216);fill-opacity:1"
         id="path4198"
         inkscape:connector-curvature="0" />
      <path
         d="m 362.47333,727.59311 -0.35,0 -0.3,-0.6 0.35,-0.15 0.3,0.75 z m 4.1,-34.25 -0.1,-0.15 -0.85,-0.3 0,0.15 0.95,0.3 z m 0.05,1 -0.35,0 -0.25,-0.85 0.35,-0.15 0.25,1 z m -0.95,4.55 -0.9,0.9 -0.2,-0.3 0.8,-0.85 0.3,0.25 z m 0.85,2.05 -9.7,0 0,-7.8 5.85,0 q 0.35,-0.05 0.35,-0.05 0.15,0.3 0.15,0.05 l 1.2,0 q -0.8,1.15 -1.55,2.3 -0.75,1.15 -0.6,1.6 -0.3,-0.1 -0.3,0.5 0,0.3 0.1,0.8 0.15,0.45 0.1,0.7 -0.05,0.2 0.4,0.4 l 0.15,-0.2 q 0,-0.05 0.15,-0.5 0.15,-0.5 0.15,-0.8 0.4,0 1.05,0.25 l 0.35,-0.4 q -0.1,-0.1 -0.5,-0.25 -0.35,-0.2 -0.6,-0.5 l 0.45,0.4 q 0.15,-0.3 0.65,-0.7 0.5,-0.4 0.5,-0.75 0,-0.15 -0.1,-0.35 0.25,0.6 0.75,1.55 0.1,0 0.5,-0.25 0.4,-0.25 0.5,-0.25 l 0,4.25 z m -4.1,11.3 q -0.2,0.15 -0.65,0.2 -0.4,0 -0.6,-0.15 0.6,-0.65 0.95,-0.65 0.05,0.6 0.3,0.6 z m 2.3,-13.65 -0.3,-0.6 -0.4,0 0.35,0.7 0.35,-0.1 z m -0.95,0.25 0,0 0,0 0,0 z m -2.05,15.6 -0.15,-0.35 -0.6,0.3 0,0.35 0.75,-0.3 z m -1.7,-1.75 -0.35,0 -0.3,0.85 0.35,0.15 0.3,-1 z m 6.25,20.45 0,-29.1 -9.45,0 0,8.8 0.95,0 q -0.25,-0.15 -0.75,-0.55 0.3,-0.15 1.1,-0.15 0.75,0 0.85,0.15 -0.9,0.95 -0.9,1.1 0.3,-0.15 1.2,-1.05 0.55,-0.5 1.2,-0.55 -0.55,0.55 -0.05,0.55 0,-0.45 0.35,-0.45 0.2,0.15 0.2,0.6 -0.2,0.25 -0.65,0.8 0.15,-0.2 0.3,-0.4 0.2,-0.25 0.55,-0.25 0.7,0 1,0.35 -1.15,0.85 -3.5,2.2 0,-0.4 0.2,-0.8 0.1,-0.2 0,-0.2 0.05,0 -0.5,0.1 -0.4,0.05 -0.55,-0.1 0,0.25 -0.25,0.7 0.25,-0.25 0.7,-0.25 l 0,0.6 q -0.45,0.25 -1.45,0.25 l 0,17.65 9.45,0 z m -0.35,-9.7 -0.35,-0.15 -0.3,0.65 0.35,0.15 0.3,-0.65 z m -2.65,-1.15 q 0.1,-0.25 0.1,-0.5 0,-0.35 -0.3,-0.9 -0.25,-0.55 -0.25,-0.6 -0.15,0.1 -0.3,0.5 -0.1,0.35 -0.25,0.5 -0.1,-0.15 -0.3,-0.2 -0.15,-0.05 -0.3,-0.2 0.15,-0.1 0.35,-0.5 0.25,-0.45 0.35,-0.6 -0.95,0.55 -1.9,0.55 0.45,1.05 0.05,1.9 l 0.55,-0.45 q 0.25,0.25 0.25,0.65 0,-0.65 0.25,-0.9 0.25,0.25 0.25,0.6 0,-0.1 0.3,-0.3 0.3,-0.25 0.35,-0.3 l 0,1.25 q 0.15,-0.4 0.55,-1 0.25,0.25 0.25,0.5 z m -1.05,0.6 -0.35,-0.4 -0.25,0.25 0.35,0.35 0.25,-0.2 z m 3.1,0.5 q -0.1,0 -0.4,0.25 -0.25,0.2 -0.4,0.2 -0.05,-0.05 -0.1,-0.3 -0.05,-0.25 -0.4,-0.25 -0.35,0 -1,0.15 -0.6,0.15 -0.8,0.15 0,0.25 0.25,0.7 0.05,0 0.45,-0.15 0.3,-0.1 0.45,0.05 -0.35,0.4 -0.8,0.4 -0.45,-0.45 -0.9,-0.45 0.7,0.6 1.55,1.7 0.25,-0.25 0.65,-0.35 -0.25,-0.15 -0.75,-0.5 0.85,-0.55 2.2,-1.6 z m -7,1.4 0,-0.7 -0.4,0 0,0.7 0.4,0 z m 0.5,1.4 -0.4,-0.4 -0.25,0.25 0.35,0.35 0.3,-0.2 z"
         style="fill:url(#linearGradient4214);fill-opacity:1"
         id="path4200"
         inkscape:connector-curvature="0" />
      <path
         d="m 395.60695,722.95468 -10.15,0 0,-12.9 q -0.05,-0.65 -0.1,-2.15 0,-0.8 0,-1.65 -0.1,-0.95 -0.6,-1.55 -0.5,-0.6 -2.2,-0.5 -0.1,0 -0.35,-0.1 -0.25,-0.1 -0.4,-0.1 0.05,0 -0.7,0.4 -1.05,0.55 -1.45,1.9 -0.2,0.7 -0.15,2.1 0.1,1.9 0.1,1.5 l 0,13.15 -10,0.05 0,-28.1 9.5,0 q 0.15,0.7 0.75,1.7 0.6,-0.45 1.9,-1.2 2.3,-1.05 3.25,-1.05 1.2,0 1.6,0.25 0.35,-0.35 0.55,-0.35 0.35,0 3.4,0.8 1.35,0.35 3.05,1.75 1.9,1.65 1.9,2.95 l 0,4.5 q 0,0.05 0.05,2.05 0.05,1.95 0.05,2.1 l 0,14.45 z m -6.75,-27.55 -0.2,-0.1 -0.15,0.35 0.2,0.05 0.15,-0.3 z m -1.6,3 0,-0.55 -0.25,0 0,0.55 0.25,0 z m -2.05,-1.6 q -0.25,-0.2 -0.7,-0.6 0,-0.1 0.4,0.75 0.1,-0.1 0.3,-0.15 z m -0.45,0.05 -0.2,-0.05 -0.15,0.35 0.2,0.05 0.15,-0.35 z m -9.3,21.95 -0.2,-0.05 -0.15,0.35 0.2,0.05 0.15,-0.35 z"
         style="fill:url(#linearGradient4212);fill-opacity:1"
         id="path4202"
         inkscape:connector-curvature="0" />
      <path
         d="m 425.43973,699.26218 q 0,1.9 -0.3,3.1 -0.2,0.4 -0.55,1.2 -0.05,0.3 -0.25,0.75 -1.35,2.05 -1.35,2.1 0,0.15 0.45,0.7 0.45,0.55 0.5,0.7 0.95,1.75 0.95,2.9 0,0.25 -0.05,0.4 0.5,0.8 0.5,2.4 0,-0.4 -0.2,1.95 -0.05,0 -0.2,0.15 -0.75,4.3 -4.85,7 -3.65,2.35 -7.8,2.35 0.6,0 -3.95,-0.3 -0.35,0 -1.95,-0.7 -1.85,-0.7 -3.7,-1.45 -3.45,-1.55 -3.45,-2.7 0,-0.15 1.5,-2.5 1.8,-2.9 2.35,-3.85 1.05,-0.05 1.4,0.15 3.6,2.7 6.8,2.7 4.35,0 4.35,-3.25 0,-0.8 -0.2,-0.9 -0.15,-0.15 -0.9,-0.15 -0.2,0 -1.6,0.2 -1.4,0.2 -1.55,0.2 -1.05,0 -3.55,-0.75 -2.15,-0.6 -2.65,-0.9 -1.75,-0.9 -2.6,-1.95 -1.15,-1.4 -1.6,-2.25 -0.55,-1.05 -0.9,-1.95 -1.1,-2.75 -1.1,-4.2 0,-0.15 0.1,-0.35 0.05,-0.25 0.1,-0.3 0.1,-0.05 0.6,-0.3 0,-0.25 -0.05,-0.3 -0.25,0.25 -0.45,0.25 0,-0.3 -0.3,-0.3 l 0,-1.45 q 0,-0.2 0.2,-0.3 0.15,-0.1 0.15,-0.15 0.15,-0.95 0.35,-2.75 0.1,-0.1 0.3,-0.4 0.6,-2.95 3.1,-4.9 0.05,0 0.15,-0.3 0.4,-0.3 1.15,-0.85 -0.05,0 0.2,0.25 0,0 0.35,-0.45 0.9,-0.55 3.15,-1.25 2.3,-0.75 3.6,-0.75 0.2,0 1.5,0.35 1.3,0.3 1.5,0.3 11.15,0 10.25,-0.05 -1.3,2.45 -2.5,4.4 0.15,0.05 0.35,0.15 2.65,4.8 2.65,8.3 z m -2.25,-11.1 q -0.05,0 -0.35,0.3 0.1,0.15 0.2,0.35 0.15,-0.2 0.15,-0.65 z m -0.7,1.4 0,-0.75 -0.25,0 0,0.75 0.25,0 z m -2,-2.15 q -0.15,0 -0.3,0.1 -0.05,-0.3 -0.2,-0.65 -0.25,0.85 -0.1,1.15 0.2,-0.15 0.6,-0.6 z m -2.7,0.8 -0.2,-0.05 -0.15,0.3 0.15,0.1 0.2,-0.35 z m 4.8,4.7 q -0.3,0 -0.4,-0.1 l 0.25,-0.3 q -0.05,0 -0.3,-0.05 -0.25,-0.1 -0.3,-0.1 -0.45,0.45 -0.4,0.75 0.7,0 1,0.15 0,-0.15 0.15,-0.35 z m 1.05,2.15 q -0.05,-0.05 -0.05,-0.75 -0.25,0.1 -0.6,0.35 0.1,0.05 0.3,0.25 0.2,0.15 0.35,0.15 z m -3.95,-4.05 q 0,-0.1 -0.15,-0.35 -0.5,0 -0.5,0.35 l 0.65,0 z m 2.35,4 0,-0.25 -0.6,0 0,0.25 0.6,0 z m -0.6,2.65 0,0 0,0 0,0 z m -7.6,-4.1 -0.2,-0.05 -0.15,0.35 0.2,0.05 0.15,-0.35 z m -7.45,-5.05 0,-0.75 -0.25,0 0,0.75 0.25,0 z m 2.6,3.15 0,-0.6 -0.2,0 0,0.6 0.2,0 z m -0.9,-0.2 -0.2,-0.2 -0.15,0.15 0.2,0.2 0.15,-0.15 z m -1.6,-1 0,-0.35 -0.2,0 0,0.35 0.2,0 z m -2.35,-1.3 0,-0.6 -0.2,0 0,0.6 0.2,0 z m 2.65,2.55 -0.25,0 -0.15,0.75 0.25,0 0.15,-0.75 z m -0.75,0.15 q -0.6,0.3 -0.75,0.45 l 0.65,0 q 0,-0.35 0.1,-0.45 z m 9.85,6.65 q 0,-0.3 -0.85,-1.35 -0.85,-1.05 -0.95,-1.1 -0.95,-0.45 -2.2,-0.45 -3.45,0 -3.45,4.05 0,0.7 0.95,2.1 0.25,0.35 1.05,0.75 0.65,0.3 1.6,0.3 1.85,0 2.9,-1.35 0.95,-1.2 0.95,-2.95 z m -9.85,-5.4 q 0,-0.15 -0.15,-0.4 l -0.35,0.4 0.5,0 z m -2.95,-2.5 0,-1 -0.2,0 0,1 0.2,0 z m 2.25,2.15 -0.25,0 -0.15,0.75 0.25,0 0.15,-0.75 z m -0.8,0.5 0,-0.4 -0.2,0 0,0.4 0.2,0 z m -1.4,3 q 0,-0.75 0,-0.75 -0.45,0.2 -0.75,0.15 0.3,0.15 0.75,0.6 z m -2.05,-1.8 q -0.25,0 -0.5,0.3 l 0,0.7 q 0.5,-0.45 0.5,-1 z m 0.3,1.55 0,-0.35 -0.2,0 0,0.35 0.2,0 z m 1.05,1.5 -0.2,-0.05 -0.15,0.3 0.2,0.1 0.15,-0.35 z m -1.95,-1.3 -0.2,-0.1 -0.3,0.45 0.2,0.15 0.3,-0.5 z m 0.65,1.8 -0.2,-0.05 -0.15,0.35 0.15,0.05 0.2,-0.35 z m -0.9,-0.5 -0.2,-0.05 -0.2,0.3 0.2,0.1 0.2,-0.35 z"
         style="fill:url(#linearGradient4228);fill-opacity:1"
         id="path4204"
         inkscape:connector-curvature="0" />
      <path
         d="m 440.31037,719.23454 -9.8,0 q 0,0 0,-1.2 -0.05,-0.85 0.35,-1.2 0,-0.2 -0.35,-0.2 l 0,-6.8 9.8,0 0,9.4 z m -3.05,-7.2 q -0.1,0 -0.25,0.1 -0.15,0.05 -0.2,0.05 l 0,0.6 q 0.45,-0.45 0.45,-0.75 z m -4.35,4.6 -0.15,-0.15 -0.3,0.3 0.15,0.15 0.3,-0.3 z"
         style="fill:url(#linearGradient4226);fill-opacity:1"
         id="path4206"
         inkscape:connector-curvature="0" />
      <path
         d="m 455.05968,721.09992 -9.8,0 q 0,0 0,-1.2 -0.05,-0.85 0.35,-1.2 0,-0.2 -0.35,-0.2 l 0,-6.8 9.8,0 0,9.4 z m -3.05,-7.2 q -0.1,0 -0.25,0.1 -0.15,0.05 -0.2,0.05 l 0,0.6 q 0.45,-0.45 0.45,-0.75 z m -4.35,4.6 -0.15,-0.15 -0.3,0.3 0.15,0.15 0.3,-0.3 z"
         style="fill:url(#linearGradient4224);fill-opacity:1"
         id="path4208"
         inkscape:connector-curvature="0" />
      <path
         d="m 469.6926,722.22647 -9.8,0 q 0,0 0,-1.2 -0.05,-0.85 0.35,-1.2 0,-0.2 -0.35,-0.2 l 0,-6.8 9.8,0 0,9.4 z m -3.05,-7.2 q -0.1,0 -0.25,0.1 -0.15,0.05 -0.2,0.05 l 0,0.6 q 0.45,-0.45 0.45,-0.75 z m -4.35,4.6 -0.15,-0.15 -0.3,0.3 0.15,0.15 0.3,-0.3 z"
         style="fill:url(#linearGradient4222);fill-opacity:1"
         id="path4210"
         inkscape:connector-curvature="0" />
    </g>
  </g>
</svg>
